<?xml version="1.0" encoding="UTF-8"?> <svg xmlns="http://www.w3.org/2000/svg" id="uuid-a646e517-38c1-41b7-a746-7df102a26c43" width="48.19" height="48.19" viewBox="0 0 48.19 48.19"><defs><style>.uuid-96e36ab8-9f94-40fe-9864-4241bc8239c7{stroke-width:0px;}</style></defs><g id="uuid-8995fe7d-bde1-472a-975d-eedf8163342a"><path class="uuid-96e36ab8-9f94-40fe-9864-4241bc8239c7" d="M24.09,0C10.79,0,0,10.79,0,24.09s10.79,24.09,24.09,24.09,24.09-10.79,24.09-24.09S37.4,0,24.09,0ZM37.08,27.48c0,3.15-2.55,5.7-5.7,5.7h-14.57c-3.15,0-5.7-2.55-5.7-5.7v-6.78c0-3.15,2.55-5.7,5.7-5.7h14.57c3.15,0,5.7,2.55,5.7,5.7v6.78Z"></path><path class="uuid-96e36ab8-9f94-40fe-9864-4241bc8239c7" d="M28.24,23.93l-6.26-3.4c-.26-.15-1.13.04-1.13.33v6.64c0,.29.87.48,1.13.34l6.54-3.23c.27-.14,0-.52-.27-.67Z"></path></g></svg> 