<?xml version="1.0" encoding="UTF-8"?> <svg xmlns="http://www.w3.org/2000/svg" id="uuid-a3e7595c-9504-45f2-bc84-ba157e1fc3e5" width="48.39" height="48.39" viewBox="0 0 48.39 48.39"><defs><style>.uuid-3406a1ef-d458-4a94-ac90-f801d403e4f7{stroke-width:0px;}</style></defs><g id="uuid-941a2c5b-d784-4475-90a5-caa2ed39a78a"><path class="uuid-3406a1ef-d458-4a94-ac90-f801d403e4f7" d="M24.19,0C10.83,0,0,10.83,0,24.19s10.83,24.19,24.19,24.19,24.19-10.83,24.19-24.19S37.56,0,24.19,0ZM38.38,29.82c0,4.7-3.82,8.52-8.52,8.52h-11.33c-4.7,0-8.52-3.82-8.52-8.52v-11.33c0-4.7,3.82-8.52,8.52-8.52h11.33c4.7,0,8.52,3.82,8.52,8.52v11.33Z"></path><path class="uuid-3406a1ef-d458-4a94-ac90-f801d403e4f7" d="M24.31,19.69c-2.47,0-4.48,2.01-4.48,4.47s2.01,4.48,4.48,4.48,4.47-2.01,4.47-4.48-2.01-4.47-4.47-4.47Z"></path><path class="uuid-3406a1ef-d458-4a94-ac90-f801d403e4f7" d="M29.86,12.65h-11.33c-3.23,0-5.85,2.62-5.85,5.85v11.33c0,3.23,2.62,5.85,5.85,5.85h11.33c3.23,0,5.85-2.63,5.85-5.85v-11.33c0-3.23-2.63-5.85-5.85-5.85ZM24.31,31.15c-3.85,0-6.99-3.13-6.99-6.99s3.13-6.99,6.99-6.99,6.99,3.13,6.99,6.99-3.13,6.99-6.99,6.99ZM31.7,18.37c-.92,0-1.66-.74-1.66-1.66s.74-1.66,1.66-1.66,1.66.74,1.66,1.66-.74,1.66-1.66,1.66Z"></path></g></svg> 