<?xml version="1.0" encoding="UTF-8"?><svg id="uuid-ef87eb96-802a-4469-9275-99a0f194f621" xmlns="http://www.w3.org/2000/svg" width="234" height="15" viewBox="0 0 234 15"><defs><style>.uuid-6da82064-c6b7-4dc6-80cf-b0f15eb0798a{fill:#5d5d5d;}</style></defs><g id="uuid-eafd7d1c-2417-46ae-9501-a4c7ba19da5a"><path class="uuid-6da82064-c6b7-4dc6-80cf-b0f15eb0798a" d="M117.84,7.08c1.39,0,2.52-1.11,2.52-2.47s-1.13-2.47-2.52-2.47-2.52,1.11-2.52,2.47,1.13,2.47,2.52,2.47Z"/><path class="uuid-6da82064-c6b7-4dc6-80cf-b0f15eb0798a" d="M230.08,6.93c-.22-.14-.5-.18-.74-.09l-5.65,1.93h-51.32c.09-.68-.09-1.32-.43-1.79-.15-.22-.96-2.43-6.36-2.57-.22,0-.44,0-.67,0,0-.31-.01-.61-.07-.9-.1-.58-.37-1.11-.73-1.55-.36-.44-.81-.78-1.31-1.03-.02-.01-.04-.02-.06-.03-4.63-2.62-15.04.99-21.56,4.62-3.66,2.04-6.13,3.54-8.26,4.65-1.07.56-2.05,1.01-3.05,1.39-.58.3-1.25.56-1.97.77-2.85.84-5.5.52-5.91-.7-.41-1.22,1.58-2.89,4.43-3.72,1.85-.54,3.61-.6,4.73-.24-1.26-.72-3.52-.48-5.57.17-.42.13-.82.28-1.21.44-1.23.51-2.36,1.41-2.93,2.33-.17.27-.29.55-.35.81-1.57-.5-2.79-1.75-3.22-3.33l-.02-.07-.02.07c-.43,1.58-1.64,2.82-3.21,3.33-.05-.27-.17-.54-.35-.81-.56-.93-1.7-1.83-2.93-2.33-.39-.16-.79-.31-1.21-.44-2.04-.64-4.31-.89-5.57-.17,1.12-.36,2.88-.3,4.73.24,2.86.84,4.84,2.5,4.43,3.72-.41,1.22-3.05,1.53-5.9.7-.72-.21-1.38-.47-1.97-.77-1-.38-1.99-.83-3.05-1.39-2.13-1.11-4.61-2.61-8.26-4.65-6.52-3.63-16.93-7.25-21.56-4.62-.02.01-.04.02-.06.03-.5.25-.95.59-1.31,1.03-.37.44-.63.97-.73,1.55-.06.29-.08.59-.07.9-.22,0-.45,0-.67,0-5.4.13-6.21,2.35-6.36,2.57-.35.47-.52,1.11-.43,1.79H10.31l-5.65-1.93c-.25-.08-.53-.05-.74.09l-3.92,2.55,3.92,2.55c.22.14.5.18.74.09l5.65-1.93h53.57c.44.64,1.14,1.26,2.18,1.77,1.02.49,4.36,2.05,10.32,1.75-12.17-1.02-12.12-4.85-11.27-6.15.2-.32.51-.6.86-.84.18-.12.37-.22.58-.31,1.16-.49,2.59-.61,3.92-.6.19,0,.38,0,.57.01.14.44.32.88.55,1.32.33.6.76,1.2,1.27,1.76.53.56,1.14,1.09,1.82,1.59.69.5,1.44.95,2.23,1.38,2.41,1.26,5.28,2.23,7.92,2.68.92.15,3.22.37,4.05-.77.74-1.02-.49-2.5-1.44-3.3-1.46-1.24-6.22-4.77-16.07-6.04,0-.24.04-.48.1-.7.13-.49.39-.92.73-1.26.61-.61,1.9-1.24,4.09-1.37,6.07-.22,12.26,2.72,17.73,5.53,4.74,2.43,11.32,7.16,16.67,7.16,1.99.05,3.53-.51,3.89-1.56.07-.19.08-.4.07-.6,1.55.51,2.76,1.75,3.18,3.32l.02.07.02-.07c.43-1.57,1.64-2.82,3.2-3.32-.02.21,0,.41.07.61.35,1.06,1.9,1.61,3.89,1.56,5.34,0,11.93-4.73,16.67-7.16,5.46-2.81,11.65-5.75,17.72-5.53,2.19.14,3.48.76,4.09,1.37.34.34.6.76.73,1.26.06.22.1.46.1.7-9.85,1.27-14.62,4.79-16.07,6.04-.94.81-2.18,2.28-1.44,3.3.83,1.15,3.13.92,4.05.77,2.64-.45,5.51-1.42,7.91-2.68.79-.42,1.54-.88,2.23-1.38.67-.5,1.29-1.03,1.81-1.59.51-.56.94-1.15,1.27-1.76.23-.44.42-.88.55-1.32.19,0,.38-.01.57-.01,1.32,0,2.76.11,3.92.6.21.09.4.2.58.31.36.24.66.52.86.84.85,1.3.89,5.12-11.27,6.15,5.96.3,9.29-1.26,10.32-1.75,1.04-.51,1.74-1.13,2.18-1.77h51.88l5.65,1.93c.25.08.52.05.74-.09l3.92-2.55-3.92-2.55h0ZM78,7.21c2.07.72,4.28,1.64,6.38,2.85.71.4,1.41.85,1.97,1.31.28.23.52.47.68.68.16.22.25.42.27.62.03.42-.21.72-.75.85-.54.13-1.28.11-2.06.03-1.61-.18-3.31-.62-4.94-1.16-.81-.27-1.61-.6-2.38-.97-.76-.36-1.48-.79-2.14-1.24-.66-.45-1.24-.95-1.75-1.48-.49-.53-.91-1.08-1.21-1.65-.21-.39-.38-.8-.5-1.21,2.01.13,4.21.6,6.44,1.37h0ZM163.64,7.05c-.3.57-.72,1.13-1.21,1.65-.5.53-1.09,1.03-1.75,1.48-.66.46-1.38.88-2.14,1.24-.77.37-1.57.7-2.38.97-1.63.54-3.34.98-4.94,1.16-.78.09-1.52.1-2.06-.03-.54-.13-.79-.43-.75-.85.02-.2.11-.4.27-.62.16-.22.4-.45.68-.68.56-.47,1.26-.91,1.97-1.31,2.1-1.2,4.31-2.12,6.38-2.85,2.23-.77,4.43-1.24,6.44-1.37-.12.41-.29.81-.5,1.21h0Z"/></g></svg>