<svg width="13" height="21" viewBox="0 0 13 21" fill="none" xmlns="http://www.w3.org/2000/svg">
<g clip-path="url(#clip0_66_259)">
<path d="M6.24997 18.1225C5.98298 18.1225 5.73907 17.9871 5.59767 17.7602C3.96672 15.1451 0.172974 8.77162 0.172974 6.07699C0.172974 2.72623 2.89921 0 6.24997 0C9.60073 0 12.327 2.72623 12.327 6.07699C12.327 8.77204 8.53322 15.1455 6.90226 17.7602C6.76087 17.9871 6.51695 18.1225 6.24997 18.1225ZM6.24997 0.68348C3.27597 0.68348 0.856454 3.103 0.856454 6.07699C0.856454 8.13384 3.60533 13.274 6.17735 17.3988C6.19828 17.4322 6.22818 17.4394 6.24997 17.4394C6.27175 17.4394 6.30166 17.4326 6.32259 17.3988C8.89504 13.2745 11.6435 8.13427 11.6435 6.07699C11.6435 3.103 9.22396 0.68348 6.24997 0.68348Z" fill="white"/>
<path d="M6.24998 7.52426C4.98127 7.52426 3.94922 6.49221 3.94922 5.2235C3.94922 3.95478 4.98127 2.92273 6.24998 2.92273C7.51869 2.92273 8.55075 3.95478 8.55075 5.2235H7.86727C7.86727 4.33155 7.14193 3.60621 6.24998 3.60621C5.35804 3.60621 4.6327 4.33155 4.6327 5.2235C4.6327 6.11544 5.35804 6.84078 6.24998 6.84078V7.52426Z" fill="white"/>
<path d="M6.25 20.1874C3.22005 20.1874 0 19.2776 0 17.5906C0 16.6607 1.04273 15.8589 2.86122 15.3898L3.03166 16.0515C1.6049 16.4193 0.683053 17.0233 0.683053 17.5902C0.683053 18.495 2.9693 19.5035 6.24957 19.5035C9.52985 19.5035 11.8161 18.4954 11.8161 17.5902C11.8161 17.0199 10.8861 16.4138 9.44741 16.0464L9.61657 15.3843C11.4487 15.8525 12.4996 16.6564 12.4996 17.5902C12.4996 19.2767 9.27953 20.187 6.24957 20.187L6.25 20.1874Z" fill="white"/>
</g>
<defs>
<clipPath id="clip0_66_259">
<rect width="12.5" height="20.1874" fill="white"/>
</clipPath>
</defs>
</svg>
