<svg width="20" height="20" viewBox="0 0 20 20" fill="none" xmlns="http://www.w3.org/2000/svg" aria-hidden="true">
<g clip-path="url(#clip0_66_264)">
<path d="M13.7622 16.592C8.09018 16.592 3.43868 11.981 3.38883 6.31075C3.38794 6.2934 3.38794 6.27604 3.38794 6.25823C3.39684 4.67955 4.67555 3.40796 6.23822 3.40796C6.25157 3.40796 6.26492 3.40796 6.27916 3.40796C6.47589 3.40796 6.67439 3.42843 6.86889 3.46938C6.9993 3.49608 7.13505 3.53525 7.27124 3.58554C7.38518 3.62738 7.46974 3.72441 7.496 3.8428L8.40307 7.93262C8.42933 8.05056 8.39373 8.1734 8.30916 8.2593C8.01986 8.55305 7.67404 8.77826 7.29438 8.92291C8.00918 10.6253 9.3996 12.0051 11.1065 12.707C11.2542 12.3264 11.4835 11.981 11.7817 11.6935C11.8671 11.6112 11.9882 11.5769 12.1039 11.6018L16.1568 12.476C16.272 12.5009 16.3673 12.581 16.4114 12.6896C16.4652 12.8222 16.5084 12.9589 16.5391 13.0964C16.588 13.3056 16.6134 13.5237 16.6134 13.7418C16.6134 15.3133 15.3347 16.592 13.7631 16.592H13.7622ZM6.22931 4.12008C5.06054 4.12542 4.10674 5.07744 4.10006 6.24666V6.27515C4.10006 6.28049 4.10095 6.29117 4.10095 6.29651C4.14324 11.5809 8.4774 15.8799 13.7622 15.8799C14.9413 15.8799 15.9004 14.9208 15.9004 13.7418C15.9004 13.5784 15.8813 13.4146 15.8439 13.2553C15.8345 13.213 15.8234 13.1712 15.8114 13.1298L12.148 12.3398C11.9196 12.6015 11.759 12.9144 11.6806 13.254C11.6579 13.3523 11.5943 13.4369 11.5057 13.4854C11.4171 13.5344 11.3117 13.5428 11.2164 13.5099C9.03286 12.7479 7.26501 10.9921 6.48746 8.81253C6.45319 8.7164 6.46164 8.61002 6.51105 8.52056C6.56045 8.4311 6.64591 8.36746 6.7456 8.3452C7.08475 8.26999 7.39898 8.11287 7.66335 7.88766L6.84441 4.1953C6.80346 4.18417 6.76341 4.17438 6.7238 4.16637C6.57736 4.13566 6.4296 4.12008 6.28317 4.11964C6.26492 4.12097 6.24712 4.12097 6.22931 4.11964V4.12008Z" fill="white"/>
<path d="M9.99201 20C9.82911 20 9.66621 19.996 9.50287 19.988C4.37646 19.7392 0.205644 15.5261 0.00758488 10.3957C-0.0983436 7.64732 0.890618 5.04451 2.79288 3.06747C4.69648 1.08955 7.25567 0 10 0C15.5141 0 20 4.48594 20 10H19.2879C19.2879 4.87849 15.1215 0.712124 10 0.712124C7.45106 0.712124 5.0739 1.72378 3.30605 3.56151C1.53954 5.39745 0.620902 7.81512 0.719264 10.3685C0.903081 15.1331 4.77659 19.0458 9.53714 19.2767C12.2548 19.4116 14.8834 18.3532 16.7487 16.382C16.9081 16.2137 16.9637 15.9872 16.9023 15.7606C16.8395 15.5296 16.6651 15.3525 16.4367 15.2862L15.9249 15.138L16.1229 14.4539L16.6343 14.6017C17.1035 14.737 17.4604 15.1001 17.5895 15.5728C17.7163 16.0379 17.5953 16.5231 17.2664 16.8707C15.3708 18.8748 12.7421 19.9996 9.99245 19.9996L9.99201 20Z" fill="white"/>
</g>
<defs>
<clipPath id="clip0_66_264">
<rect width="20" height="20" fill="white"/>
</clipPath>
</defs>
</svg>
