<svg width="18" height="12" viewBox="0 0 18 12" xmlns="http://www.w3.org/2000/svg" aria-hidden="true">
<g clip-path="url(#clip0_66_238)">
<path d="M15.6871 12H1.67224C0.750198 12 0 11.2498 0 10.3278V1.67224C0 0.750198 0.750198 0 1.67224 0H15.6871C16.6092 0 17.3594 0.750198 17.3594 1.67224V10.3278C17.3594 11.2498 16.6092 12 15.6871 12ZM1.67224 0.56459C1.06143 0.56459 0.56459 1.06143 0.56459 1.67224V10.3278C0.56459 10.9386 1.06143 11.4354 1.67224 11.4354H15.6871C16.2979 11.4354 16.7948 10.9386 16.7948 10.3278V1.67224C16.7948 1.06143 16.2979 0.56459 15.6871 0.56459H1.67224Z" />
<path d="M8.67912 7.88621C8.61243 7.88621 8.54574 7.86257 8.49246 7.81564L0.5448 0.799907L0.918488 0.376465L8.67912 7.22705L16.4405 0.376818L16.8142 0.80026L8.8665 7.81564C8.81322 7.86257 8.74652 7.88621 8.67983 7.88621H8.67912Z" />
<path d="M5.71241 4.98623L0.370117 11.0758L0.794533 11.4481L6.13683 5.35857L5.71241 4.98623Z" />
<path d="M12.7592 6.25418L12.3348 6.62659L16.5647 11.4464L16.989 11.074L12.7592 6.25418Z" />
</g>
<defs>
<clipPath id="clip0_66_238">
<rect width="17.3594" height="12" />
</clipPath>
</defs>
</svg>
